<svg width="71" height="73" viewBox="0 0 71 73" fill="none" xmlns="http://www.w3.org/2000/svg">
<g clip-path="url(#clip0)">
<path d="M71 32.2454V24.8558C71 23.4003 69.7701 22.1687 68.3165 22.1687H37.5685V34.9325H68.4283C69.7701 34.8205 71 33.7009 71 32.2454Z" fill="white"/>
<path d="M0 24.7439V32.1334C0 33.589 1.22992 34.8206 2.68346 34.8206H33.5433V22.0568H2.68346C1.22992 22.0568 0 23.2883 0 24.7439Z" fill="white"/>
<path d="M66.9748 70.4249V37.5077H37.5685V73.112H64.2913C65.7449 73 66.9748 71.8804 66.9748 70.4249Z" fill="white"/>
<path d="M4.02521 37.5077V70.4249C4.02521 71.8804 5.25513 73.112 6.70867 73.112H33.4315V37.5077H4.02521Z" fill="white"/>
<path d="M39.1339 20.2653C38.3512 20.2653 37.5685 19.8175 37.2331 19.1457C36.7858 18.4739 36.7858 17.5782 37.2331 16.9064C38.0158 15.4509 45.9543 1.56749 55.1228 0.111964C58.2535 -0.335889 61.2724 0.67178 63.8441 3.13497C66.4157 5.59816 67.1984 9.62884 65.6331 13.2117C63.9559 17.4663 59.8189 20.1534 55.011 20.1534C48.0787 20.1534 39.2457 20.2653 39.1339 20.2653ZM56.6882 4.47853C56.4646 4.47853 56.1291 4.47853 55.9055 4.59049C51.3213 5.26227 46.2898 11.3083 43.2709 15.7868C46.5134 15.7868 51.2095 15.6748 55.2347 15.6748C58.7008 15.6748 60.8252 13.5475 61.7197 11.5322C62.3906 9.96473 62.5024 7.83742 60.937 6.26994C59.4835 5.03834 58.1417 4.47853 56.6882 4.47853Z" fill="white"/>
<path d="M32.2016 20.2653C32.0897 20.2653 23.2567 20.1534 16.2126 20.1534C11.4047 20.1534 7.37951 17.4663 5.59053 13.2117C4.2488 9.62884 4.91967 5.59816 7.49132 3.13497C10.063 0.67178 13.0819 -0.335889 16.2126 0.111964C25.4929 1.56749 33.3197 15.4509 34.2142 17.0184C34.5496 17.6902 34.5496 18.5859 34.2142 19.2577C33.7669 19.9295 32.9842 20.2653 32.2016 20.2653ZM14.759 4.47853C13.3055 4.47853 11.9638 5.03834 10.622 6.3819C9.05667 7.83742 9.16848 9.96473 9.83935 11.5322C10.622 13.5475 12.7464 15.6748 16.3244 15.6748C20.3496 15.6748 25.0456 15.6748 28.2882 15.7868C25.2693 11.3083 20.2378 5.26227 15.6535 4.59049C15.2063 4.47853 14.9827 4.47853 14.759 4.47853Z" fill="white"/>
</g>
<defs>
<clipPath id="clip0">
<rect width="71" height="73" fill="white"/>
</clipPath>
</defs>
</svg>
