<svg width="87" height="73" viewBox="0 0 87 73" fill="none" xmlns="http://www.w3.org/2000/svg">
<g clip-path="url(#clip0)">
<path d="M39.4001 5.9C40.5001 4 39.7 1.5 37.8 0.499999C35.9 -0.500001 33.4001 0.199999 32.4001 2.1L20.9 23.3C20.8 23.4 20.8 23.5 20.8 23.7H29.9L39.4001 5.9Z" fill="white"/>
<path d="M69.3001 10.7C59.7001 10.7 51.8 18.5 51.8 28.2C51.8 37.8 59.6001 45.7 69.3001 45.7C79.0001 45.7 86.8001 37.9 86.8001 28.2C86.8001 18.6 78.9001 10.7 69.3001 10.7Z" fill="white"/>
<path d="M78.1 15.7C76.8 19.1 73.7 19.8 69.3 19.8C68.8 19.8 68.4 19.8 67.9 19.8C67.5 19.8 67.1 19.8 66.6 19.8C66.2 19.8 65.9 19.8 65.5 19.8C66.1 18.3 67.1 17.3 68.5 16.6C70.5 15.7 73 15.7 75.2 15.7C76.3 15.7 77.3 15.7 78.1 15.7Z" fill="#009038"/>
<path d="M79.5 16.8C77.5 21.1 73.1 21.5 69.4 21.5C68.6 21.5 67.8 21.5 67 21.5L66.1 25.2C71 21.2 77.4 25.2 76.7 31.1C76.2 35.1 73.4 37.8 70.3 38.5C67 39.3 63.3 38.1 61.7 34.7C61.5 34.3 61.2 33.6 61.1 33.2L64.6 32.3C64.7 32.5 64.8 32.7 64.9 32.9C67.2 36.7 72 34.8 72.5 30.9C73 26.9 67.5 24.8 64.9 29.5L61.8 28.2H61.7L63.2 22.2C63.3 21.8 63.6 20.6 63.7 20.4C65.4 14.2 70.8 14.1 75.2 14.1C73.4 13.3 71.4 12.9 69.3 12.9C60.8 12.9 54 19.8 54 28.2C54 36.7 60.9 43.5 69.3 43.5C77.7 43.5 84.6 36.6 84.6 28.2C84.6 23.7 82.6 19.6 79.5 16.8Z" fill="#E41C1E"/>
<path d="M63.8 47.4V62.2C63.8 64.4 62 66.2 59.8 66.2C57.6 66.2 55.8 64.4 55.8 62.2V42.8C51.9 39.2 49.4 34 49.4 28.2C49.4 27.6 49.4 27 49.5 26.5H4C1.8 26.5 0 28.3 0 30.5C0 32.7 1.8 34.5 4 34.5H8C9.2 38.9 14.6 59.6 15.6 64.3C16.8 69.6 17.3 73 23.1 73C27.1 73 36.5 73 41.9 73C44.3 73 45.9 73 45.9 73C51.3 73 60.7 73 64.7 73C70.5 73 71 69.7 72.2 64.3C72.8 61.6 74.8 53.8 76.6 46.8C74.3 47.7 71.8 48.2 69.3 48.2C67.4 48.2 65.5 47.9 63.8 47.4ZM32.1 62.2C32.1 64.4 30.3 66.2 28.1 66.2C25.9 66.2 24.1 64.4 24.1 62.2V38.1C24.1 35.9 25.9 34.1 28.1 34.1C30.3 34.1 32.1 35.9 32.1 38.1V62.2ZM47.9 62.2C47.9 64.4 46.1 66.2 43.9 66.2C41.7 66.2 39.9 64.4 39.9 62.2V38.1C39.9 35.9 41.7 34.1 43.9 34.1C46.1 34.1 47.9 35.9 47.9 38.1V62.2Z" fill="white"/>
<path d="M60 10.5L55.4 2.1C54.4 0.200002 52 -0.599998 50 0.500002C48 1.6 47.4 4 48.4 5.9L53.7 15.7C55.4 13.6 57.6 11.8 60 10.5Z" fill="white"/>
</g>
<defs>
<clipPath id="clip0">
<rect width="86.8" height="73" fill="white"/>
</clipPath>
</defs>
</svg>
