<svg width="64" height="73" viewBox="0 0 64 73" fill="none" xmlns="http://www.w3.org/2000/svg">
<g clip-path="url(#clip0)">
<path d="M62.4217 0H1.57833C0.711358 0 0 0.707879 0 1.57061V71.4515C0 72.3142 0.711358 73.0221 1.57833 73.0221H10.9371C11.8041 73.0221 12.5155 72.3142 12.5155 71.4515V69.1288C12.5155 67.4254 13.9159 66.0318 15.6277 66.0318C17.3394 66.0318 18.7398 67.4254 18.7398 69.1288V71.4515C18.7398 72.3142 19.4512 73.0221 20.3182 73.0221H27.3428C28.2098 73.0221 28.9212 72.3142 28.9212 71.4515V69.1288C28.9212 67.4254 30.3216 66.0318 32.0333 66.0318C33.7451 66.0318 35.1455 67.4254 35.1455 69.1288V71.4515C35.1455 72.3142 35.8569 73.0221 36.7239 73.0221H43.7485C44.6155 73.0221 45.3269 72.3142 45.3269 71.4515V69.1288C45.3269 67.4254 46.7273 66.0318 48.439 66.0318C50.1507 66.0318 51.5512 67.4254 51.5512 69.1288V71.4515C51.5512 72.3142 52.2626 73.0221 53.1296 73.0221H62.4884C63.3553 73.0221 64.0667 72.3142 64.0667 71.4515V1.57061C64 0.707879 63.2886 0 62.4217 0ZM15.6054 54.3739H10.9371C10.0702 54.3739 9.35881 53.6661 9.35881 52.8033C9.35881 51.9406 10.0702 51.2327 10.9371 51.2327H15.6277C16.4946 51.2327 17.206 51.9406 17.206 52.8033C17.1837 53.6661 16.4724 54.3739 15.6054 54.3739ZM15.6054 45.0609H10.9371C10.0702 45.0609 9.35881 44.353 9.35881 43.4903C9.35881 42.6276 10.0702 41.9197 10.9371 41.9197H15.6277C16.4946 41.9197 17.206 42.6276 17.206 43.4903C17.1837 44.353 16.4724 45.0609 15.6054 45.0609ZM15.6054 35.7258H10.9371C10.0702 35.7258 9.35881 35.0179 9.35881 34.1551C9.35881 33.2924 10.0702 32.5845 10.9371 32.5845H15.6277C16.4946 32.5845 17.206 33.2924 17.206 34.1551C17.1837 35.04 16.4724 35.7258 15.6054 35.7258ZM21.074 22.5194C21.074 21.6567 21.7853 20.9488 22.6523 20.9488H36.6794C37.5464 20.9488 38.2577 21.6567 38.2577 22.5194C38.2577 23.3821 37.5464 24.09 36.6794 24.09H22.6301C21.7631 24.09 21.074 23.3821 21.074 22.5194ZM52.1292 54.3739H24.9865C24.1195 54.3739 23.4081 53.6661 23.4081 52.8033C23.4081 51.9406 24.1195 51.2327 24.9865 51.2327H52.1292C52.9962 51.2327 53.7075 51.9406 53.7075 52.8033C53.6853 53.6661 52.9962 54.3739 52.1292 54.3739ZM52.1292 45.0609H24.9865C24.1195 45.0609 23.4081 44.353 23.4081 43.4903C23.4081 42.6276 24.1195 41.9197 24.9865 41.9197H52.1292C52.9962 41.9197 53.7075 42.6276 53.7075 43.4903C53.6853 44.353 52.9962 45.0609 52.1292 45.0609ZM52.1292 35.7258H24.9865C24.1195 35.7258 23.4081 35.0179 23.4081 34.1551C23.4081 33.2924 24.1195 32.5845 24.9865 32.5845H52.1292C52.9962 32.5845 53.7075 33.2924 53.7075 34.1551C53.6853 35.04 52.9962 35.7258 52.1292 35.7258ZM53.0629 24.09H46.0382C45.1712 24.09 44.4599 23.3821 44.4599 22.5194C44.4599 21.6567 45.1712 20.9488 46.0382 20.9488H53.0629C53.9298 20.9488 54.6412 21.6567 54.6412 22.5194C54.6412 23.3821 53.9298 24.09 53.0629 24.09ZM53.0629 14.777H10.9371C10.0702 14.777 9.35881 14.0691 9.35881 13.2064C9.35881 12.3436 10.0702 11.6358 10.9371 11.6358H53.0629C53.9298 11.6358 54.6412 12.3436 54.6412 13.2064C54.6412 14.0691 53.9298 14.777 53.0629 14.777Z" fill="white"/>
</g>
<defs>
<clipPath id="clip0">
<rect width="64" height="73" fill="white"/>
</clipPath>
</defs>
</svg>
