<svg width="333" height="44" viewBox="0 0 333 44" fill="none" xmlns="http://www.w3.org/2000/svg">
<path d="M23.2852 11.7257L18.4619 16.5491L13.6385 11.7257C10.9773 9.06458 10.9773 4.74019 13.6385 1.99587C16.2997 -0.66529 20.6241 -0.66529 23.2852 1.99587C25.9464 4.65703 25.9464 9.06458 23.2852 11.7257Z" fill="#14582A"/>
<path d="M13.6385 25.3641L18.4619 20.5408L23.2852 25.3641C25.9464 28.0253 25.9464 32.3497 23.2852 35.094C20.6241 37.7552 16.2997 37.7552 13.6385 35.094C10.9773 32.3497 10.9773 28.0253 13.6385 25.3641Z" fill="#14582A"/>
<path d="M25.1978 23.368L20.3745 18.5446L25.1978 13.7213C27.859 11.0601 32.1834 11.0601 34.8445 13.7213C37.5057 16.3824 37.5057 20.7068 34.8445 23.4511C32.1834 26.0291 27.859 26.0291 25.1978 23.368Z" fill="#14582A"/>
<path d="M11.6426 13.6385L16.4659 18.4619L11.6426 23.3684C8.98142 26.0295 4.65703 26.0295 1.99587 23.3684C-0.66529 20.7072 -0.66529 16.3828 1.99587 13.6385C4.65703 10.9773 8.98142 10.9773 11.6426 13.6385Z" fill="#14582A"/>
<path d="M281.916 11.3931H261.958V17.048H269.026V34.0129H274.848V17.048H281.916V11.3931Z" fill="#14582A"/>
<path d="M89.6473 29.3559C91.8927 29.3559 93.7222 28.4411 94.7202 27.1106L99.3772 29.8549C97.2982 32.9319 93.8885 34.6782 89.5642 34.6782C81.9965 34.6782 77.2563 29.4391 77.2563 22.703C77.2563 15.9669 82.0796 10.7278 89.1483 10.7278C95.8013 10.7278 100.541 16.0501 100.541 22.703C100.541 23.5346 100.458 24.3662 100.292 25.1147H83.3271C84.1587 28.1085 86.5704 29.3559 89.6473 29.3559ZM94.7202 20.624C93.9717 17.3807 91.56 16.0501 89.1483 16.0501C86.0714 16.0501 83.9092 17.7133 83.2439 20.624H94.7202Z" fill="#14582A"/>
<path d="M128.651 22.703C128.651 29.4391 123.661 34.6782 117.673 34.6782C114.347 34.6782 112.018 33.4308 110.355 31.3518V43.0775H104.534V11.3931H110.355V14.0542C111.935 11.9752 114.347 10.7278 117.673 10.7278C123.744 10.8109 128.651 15.9669 128.651 22.703ZM122.829 22.703C122.829 18.8776 120.168 16.2996 116.592 16.2996C113.016 16.2996 110.355 18.8776 110.355 22.703C110.355 26.5284 113.016 29.1064 116.592 29.1064C120.168 29.1064 122.829 26.5284 122.829 22.703Z" fill="#14582A"/>
<path d="M144.035 29.3559C146.281 29.3559 148.11 28.4411 149.108 27.1106L153.765 29.8549C151.686 32.9319 148.277 34.6782 143.952 34.6782C136.384 34.6782 131.644 29.4391 131.644 22.703C131.644 15.9669 136.468 10.7278 143.536 10.7278C150.189 10.7278 154.929 16.0501 154.929 22.703C154.929 23.5346 154.846 24.3662 154.68 25.1147H137.715C138.464 28.1085 140.958 29.3559 144.035 29.3559ZM149.108 20.624C148.36 17.3807 145.948 16.0501 143.536 16.0501C140.459 16.0501 138.297 17.7133 137.632 20.624H149.108Z" fill="#14582A"/>
<path d="M208.402 22.703C208.402 29.4391 203.413 34.6782 197.425 34.6782C194.099 34.6782 191.77 33.4308 190.107 31.3518V43.0775H184.286V11.3931H190.107V14.0542C191.687 11.9752 194.099 10.7278 197.425 10.7278C203.413 10.8109 208.402 15.9669 208.402 22.703ZM202.581 22.703C202.581 18.8776 199.92 16.2996 196.344 16.2996C192.768 16.2996 190.107 18.8776 190.107 22.703C190.107 26.5284 192.768 29.1064 196.344 29.1064C199.92 29.1064 202.581 26.5284 202.581 22.703Z" fill="#14582A"/>
<path d="M223.704 29.3559C225.949 29.3559 227.779 28.4411 228.777 27.1105L233.434 29.8548C231.355 32.9318 227.945 34.6782 223.621 34.6782C216.053 34.6782 211.313 29.439 211.313 22.703C211.313 15.9669 216.136 10.7277 223.205 10.7277C229.858 10.7277 234.598 16.0501 234.598 22.703C234.598 23.5346 234.515 24.3662 234.349 25.1146H217.384C218.215 28.1085 220.71 29.3559 223.704 29.3559ZM215.554 5.98755C215.554 4.32433 216.968 2.91058 218.631 2.91058C220.294 2.91058 221.625 4.32433 221.625 5.98755C221.625 7.65078 220.294 8.98136 218.631 8.98136C216.968 8.98136 215.554 7.65078 215.554 5.98755ZM228.777 20.6239C228.028 17.3806 225.617 16.0501 223.205 16.0501C220.128 16.0501 217.966 17.7133 217.3 20.6239H228.777ZM224.12 5.98755C224.12 4.32433 225.533 2.91058 227.197 2.91058C228.86 2.91058 230.19 4.32433 230.19 5.98755C230.19 7.65078 228.86 8.98136 227.197 8.98136C225.533 8.98136 224.12 7.65078 224.12 5.98755Z" fill="#14582A"/>
<path d="M237.342 22.703C237.342 15.9669 242.415 10.7278 249.234 10.7278C253.642 10.7278 257.467 13.0563 259.297 16.5491L254.307 19.4597C253.392 17.6302 251.48 16.4659 249.151 16.4659C245.658 16.4659 243.08 19.0439 243.08 22.703C243.08 26.2789 245.658 28.8569 249.151 28.8569C251.48 28.8569 253.392 27.6927 254.307 25.8631L259.38 28.7738C257.467 32.2666 253.642 34.6782 249.234 34.6782C242.332 34.6782 237.342 29.4391 237.342 22.703Z" fill="#14582A"/>
<path d="M283.829 22.703C283.829 15.9669 289.068 10.7278 295.721 10.7278C302.374 10.7278 307.696 15.9669 307.696 22.703C307.696 29.4391 302.374 34.6782 295.721 34.6782C289.068 34.6782 283.829 29.4391 283.829 22.703ZM301.792 22.703C301.792 19.0439 299.131 16.4659 295.638 16.4659C292.228 16.4659 289.567 19.0439 289.567 22.703C289.567 26.3621 292.228 28.9401 295.638 28.9401C299.131 28.9401 301.792 26.3621 301.792 22.703Z" fill="#14582A"/>
<path d="M173.724 34.0129H180.46L171.811 22.6198L180.21 11.3931H173.225L166.738 20.624H164.742V11.3931H158.921V34.0129H164.742V25.1147H167.237L173.724 34.0129Z" fill="#14582A"/>
<path d="M325.826 34.0129H332.562L323.996 22.6198L332.312 11.3931H325.41L318.84 20.624H316.928V11.3931H311.106V34.0129H316.928V25.1147H319.339L325.826 34.0129Z" fill="#14582A"/>
<path d="M73.4315 34.0129H67.1944V8.73187H56.0508V34.0129H49.8969V2.91058H73.4315V34.0129Z" fill="#14582A"/>
</svg>
