<svg width="96" height="99" viewBox="0 0 96 99" fill="none" xmlns="http://www.w3.org/2000/svg">
<path d="M95.2805 43.2611V33.3444C95.2805 31.3911 93.63 29.7384 91.6794 29.7384H50.4161V46.8672H91.8294C93.63 46.7169 95.2805 45.2144 95.2805 43.2611Z" fill="#FDF48D"/>
<path d="M0 33.1942V43.1109C0 45.0642 1.65053 46.7169 3.60116 46.7169H45.0145V29.5881H3.60116C1.65053 29.5881 0 31.2409 0 33.1942Z" fill="#FDF48D"/>
<path d="M89.8788 94.4973V50.323H50.4161V98.1033H86.2776C88.2283 97.9531 89.8788 96.4505 89.8788 94.4973Z" fill="#FDF48D"/>
<path d="M5.40167 50.323V94.4973C5.40167 96.4505 7.0522 98.1033 9.00283 98.1033H44.8644V50.323H5.40167Z" fill="#FDF48D"/>
<path d="M52.517 27.1842C51.4667 27.1842 50.4163 26.5831 49.9662 25.6816C49.366 24.7801 49.366 23.5781 49.9662 22.6766C51.0165 20.7233 61.67 2.09198 73.9739 0.138695C78.1753 -0.462316 82.2266 0.889957 85.6777 4.19551C89.1288 7.50107 90.1791 12.9102 88.0785 17.7182C85.8277 23.4278 80.276 27.0339 73.8239 27.0339C64.5209 27.0339 52.6671 27.1842 52.517 27.1842ZM76.0746 5.99854C75.7745 5.99854 75.3244 5.99854 75.0243 6.1488C68.8723 7.05031 62.1201 15.164 58.0688 21.1741C62.4202 21.1741 68.7222 21.0238 74.124 21.0238C78.7755 21.0238 81.6264 18.169 82.8268 15.4645C83.7271 13.3609 83.8771 10.5061 81.7764 8.40259C79.8258 6.74981 78.0252 5.99854 76.0746 5.99854Z" fill="#FDF48D"/>
<path d="M43.214 27.1842C43.0639 27.1842 31.2101 27.0339 21.7571 27.0339C15.305 27.0339 9.90326 23.4278 7.50248 17.7182C5.7019 12.9102 6.60219 7.50107 10.0533 4.19551C13.5044 0.889957 17.5557 -0.462316 21.7571 0.138695C34.2111 2.09198 44.7145 20.7233 45.9149 22.8268C46.365 23.7283 46.365 24.9304 45.9149 25.8319C45.3147 26.7334 44.2643 27.1842 43.214 27.1842ZM19.8064 5.99854C17.8558 5.99854 16.0552 6.74981 14.2547 8.55284C12.154 10.5061 12.304 13.3609 13.2043 15.4645C14.2547 18.169 17.1056 21.0238 21.9071 21.0238C27.3089 21.0238 33.6109 21.0238 37.9623 21.1741C33.911 15.164 27.1588 7.05031 21.0068 6.1488C20.4066 5.99854 20.1065 5.99854 19.8064 5.99854Z" fill="#FDF48D"/>
</svg>
