<svg width="86" height="98" viewBox="0 0 86 98" fill="none" xmlns="http://www.w3.org/2000/svg">
<g clip-path="url(#clip0)">
<path d="M31.8071 2.66025L61.7991 5.06305L57.7368 54.063L59.8111 60.6708L64.4785 3.94746C64.5649 3.26095 64.0463 2.66025 63.2684 2.57443L30.6835 0C30.3378 0 29.992 0.0858144 29.7327 0.343257C29.4734 0.600701 29.3006 0.858144 29.3006 1.2014L28.6956 8.92469L31.2885 8.66725L31.8071 2.66025Z" fill="#FDF48D"/>
<path d="M42.006 29.7776H29.9055V38.5306H42.006V29.7776Z" fill="#FDF48D"/>
<path d="M2.67942 15.704L32.6714 12.7005L32.9307 15.6182L35.5236 15.5324L35.0915 11.2417C35.0915 10.8984 34.9186 10.5552 34.6593 10.3835C34.4 10.2119 34.0543 10.0403 33.7086 10.1261L1.12364 13.3012C0.432186 13.387 -0.0864071 13.9877 2.50237e-05 14.6743L7.08746 84.613C7.08746 84.9562 7.26033 85.2995 7.51962 85.4711C7.77892 85.7285 8.12465 85.8144 8.38395 85.8144C8.47038 85.8144 8.47038 85.8144 8.55681 85.8144L15.385 85.1278V82.5534L9.594 83.1541L2.67942 15.704Z" fill="#FDF48D"/>
<path d="M72.5166 86.7583C73.4674 87.0158 74.4181 87.1874 75.4553 87.1874C81.3327 87.1874 86 82.4676 86 76.718C86 71.0543 81.5056 66.5061 75.8875 66.2487C75.9739 64.275 76.0603 62.9877 76.0603 62.9877H58.6875L55.403 52.261V20.6813C55.403 18.7933 53.8473 17.1629 51.8593 17.1629H20.1387C18.2372 17.1629 16.595 18.7075 16.595 20.6813V45.5674L13.6563 55.951C13.5699 56.2942 13.5699 56.6375 13.8292 56.9807C14.002 57.324 14.3478 57.4956 14.6935 57.5814L17.0272 58.0963V90.0193C17.0272 90.7058 17.6322 91.3065 18.3236 91.3065H37.598C38.5488 92.5079 39.4995 93.4518 40.1045 94.0525C34.4865 94.4816 30.8563 95.0823 30.8563 95.8546C30.8563 97.056 41.0553 98.0858 53.5015 98.0858C65.9478 98.0858 76.1468 97.1419 76.1468 95.8546C76.1468 95.1681 72.5166 94.4816 66.8985 94.0525C68.2814 92.7653 70.7015 90.1909 72.5166 86.7583ZM75.6282 71.3117C78.5669 71.3976 80.9005 73.8004 80.9005 76.6322C80.9005 79.5499 78.4804 81.9527 75.5417 81.9527C75.1096 81.9527 74.6774 81.8669 74.3317 81.7811C74.8503 78.7776 75.3689 74.8301 75.6282 71.3117ZM44.5126 88.7321C42.6111 87.359 38.8081 84.0123 37.1659 77.9194C35.6965 72.2557 36.1287 66.0771 36.1287 66.0771H43.4754C43.4754 66.0771 42.7839 71.3976 43.4754 78.606C43.994 83.9265 44.9447 87.359 45.3769 88.7321H44.5126ZM21.3488 38.5307H28.1769V29.7776H21.3488V28.0613H28.1769V22.7408H29.9056V28.0613H42.0061V22.7408H43.7347V28.0613H50.6493V29.7776H43.7347V38.5307H50.6493V40.2469H43.7347V47.627H42.0061V40.2469H29.9056V44.366H28.1769V40.2469H21.3488V38.5307ZM18.7558 47.4553L52.6372 51.9177L56.0945 62.9877H50.8221H49.5257L16.6814 55.3503L18.7558 47.4553ZM19.5337 88.7321V58.697L37.9437 62.9877H30.9427C30.9427 62.9877 31.2885 75.0018 32.8442 82.296C33.3628 84.6988 34.4865 86.93 35.6101 88.8179H19.5337V88.7321Z" fill="#FDF48D"/>
</g>
<defs>
<clipPath id="clip0">
<rect width="86" height="98" fill="white"/>
</clipPath>
</defs>
</svg>
