<svg width="91" height="99" viewBox="0 0 91 99" fill="none" xmlns="http://www.w3.org/2000/svg">
<g clip-path="url(#clip0)">
<path d="M46.6471 5.32054C47.5074 3.42035 46.6471 1.14012 44.7353 0.28503C42.8236 -0.570056 40.5295 0.28503 39.6692 2.18522L30.3015 22.8023H38.7133L46.6471 5.32054Z" fill="#FDF48D"/>
<path d="M62.0367 2.28022C61.1764 0.380032 58.8823 -0.475055 56.9705 0.380032C55.0588 1.23512 54.1985 3.51535 55.0588 5.41554L63.0882 22.8973H71.5L62.0367 2.28022Z" fill="#FDF48D"/>
<path d="M87.1765 26.5077H15.0074C12.9044 26.5077 11.1838 28.2179 11.1838 30.3081C11.1838 32.3983 12.9044 34.1085 15.0074 34.1085H17.2059L21.7941 51.4952H31.6397V38.1939C31.6397 36.1037 33.3603 34.3935 35.4632 34.3935C37.5662 34.3935 39.2868 36.1037 39.2868 38.1939V51.4002H46.7427V38.1939C46.7427 36.1037 48.4632 34.3935 50.5662 34.3935C52.6691 34.3935 54.3897 36.1037 54.3897 38.1939V51.4002H61.8456V38.1939C61.8456 36.1037 63.5662 34.3935 65.6691 34.3935C67.7721 34.3935 69.4927 36.1037 69.4927 38.1939V52.6353C71.4044 53.9655 72.6471 56.0557 72.6471 58.5259V70.3071H74.75L84.4044 34.0134H87.1765C89.2794 34.0134 91 32.3033 91 30.2131C91 28.1228 89.2794 26.5077 87.1765 26.5077Z" fill="#FDF48D"/>
<path d="M65.4779 54.8205H3.82353C1.72059 54.8205 0 56.5307 0 58.6209V95.2946C0 97.3848 1.72059 99.095 3.82353 99.095H65.4779C67.5809 99.095 69.3015 97.3848 69.3015 95.2946V58.6209C69.3015 56.5307 67.5809 54.8205 65.4779 54.8205ZM30.4926 62.7063C32.7868 60.4261 36.5147 60.4261 38.9044 62.7063C41.1985 64.9866 41.1985 68.7869 38.9044 71.0672L34.6985 75.2476L30.4926 71.0672C28.1985 68.6919 28.1985 64.9866 30.4926 62.7063ZM20.3603 81.1382C18.0662 78.858 18.0662 75.0576 20.3603 72.7773C22.6544 70.4971 26.3824 70.4971 28.7721 72.7773L32.9779 76.9578L28.7721 81.1382C26.4779 83.4184 22.75 83.4184 20.3603 81.1382ZM38.8088 91.1142C36.5147 93.3944 32.7868 93.3944 30.3971 91.1142C28.1029 88.834 28.1029 85.0336 30.3971 82.7533L34.6029 78.5729L38.8088 82.7533C41.1029 85.1286 41.1029 88.834 38.8088 91.1142ZM48.9412 81.1382C46.6471 83.4184 42.9191 83.4184 40.5294 81.1382L36.3235 76.9578L40.5294 72.7773C42.8235 70.4971 46.5515 70.4971 48.9412 72.7773C51.2353 75.0576 51.2353 78.7629 48.9412 81.1382Z" fill="#FDF48D"/>
</g>
<defs>
<clipPath id="clip0">
<rect width="91" height="99" fill="white"/>
</clipPath>
</defs>
</svg>
