<svg width="84" height="98" viewBox="0 0 84 98" fill="none" xmlns="http://www.w3.org/2000/svg">
<mask id="mask0" mask-type="alpha" maskUnits="userSpaceOnUse" x="30" y="0" width="54" height="63">
<g clip-path="url(#clip0)">
<path d="M74.7718 63C74.0403 63 73.4401 62.3891 73.4401 61.6445V59.64C73.4401 58.17 72.2584 56.9673 70.8142 56.9673C69.3699 56.9673 68.1883 58.17 68.1883 59.64V61.6445C68.1883 62.3891 67.5881 63 66.8565 63H60.9482C60.2167 63 59.6165 62.3891 59.6165 61.6445V59.64C59.6165 58.17 58.4349 56.9673 56.9906 56.9673C55.5464 56.9673 54.3647 58.17 54.3647 59.64V61.6445C54.3647 62.3891 53.7645 63 53.033 63H47.1247C46.3932 63 45.793 62.3891 45.793 61.6445V59.64C45.793 58.17 44.6113 56.9673 43.1671 56.9673C41.7228 56.9673 40.5412 58.17 40.5412 59.64V61.6445C40.5412 62.3891 39.941 63 39.2094 63H31.3317C30.6002 63 30 62.3891 30 61.6445V1.35545C30 0.610909 30.6002 0 31.3317 0H82.6683C83.3998 0 84 0.610909 84 1.35545V61.6636C84 62.4082 83.3998 63.0191 82.6683 63.0191H74.7718V63ZM70.8142 54.2755C73.7214 54.2755 76.0848 56.6809 76.0848 59.64C76.0848 60.0027 76.3661 60.3082 76.7412 60.3082H80.6989C81.0552 60.3082 81.3553 60.0218 81.3553 59.64V3.36C81.3553 2.99727 81.074 2.69182 80.6989 2.69182H33.3011C32.9448 2.69182 32.6447 2.97818 32.6447 3.36V59.64C32.6447 60.0027 32.926 60.3082 33.3011 60.3082H37.2588C37.6151 60.3082 37.9152 60.0218 37.9152 59.64C37.9152 56.6809 40.2786 54.2755 43.1858 54.2755C46.0931 54.2755 48.4564 56.6809 48.4564 59.64C48.4564 60.0027 48.7378 60.3082 49.1129 60.3082H51.0823C51.4387 60.3082 51.7388 60.0218 51.7388 59.64C51.7388 56.6809 54.1021 54.2755 57.0094 54.2755C59.9166 54.2755 62.28 56.6809 62.28 59.64C62.28 60.0027 62.5613 60.3082 62.9364 60.3082H64.9059C65.2622 60.3082 65.5624 60.0218 65.5624 59.64C65.5436 56.6809 67.9069 54.2755 70.8142 54.2755Z" fill="#FDF48D"/>
<path d="M39.2282 30.8318C38.4967 30.8318 37.8965 30.2209 37.8965 29.4764C37.8965 28.7318 38.4967 28.1209 39.2282 28.1209H43.1858C43.9173 28.1209 44.5175 28.7318 44.5175 29.4764C44.5175 30.2209 43.9173 30.8318 43.1858 30.8318H39.2282Z" fill="#FDF48D"/>
<path d="M51.0823 30.8318C50.3508 30.8318 49.7506 30.2209 49.7506 29.4764C49.7506 28.7318 50.3508 28.1209 51.0823 28.1209H73.984C74.7155 28.1209 75.3157 28.7318 75.3157 29.4764C75.3157 30.2209 74.7155 30.8318 73.984 30.8318H51.0823Z" fill="#FDF48D"/>
<path d="M39.2282 38.8882C38.4967 38.8882 37.8965 38.2773 37.8965 37.5327C37.8965 36.7882 38.4967 36.1773 39.2282 36.1773H43.1858C43.9173 36.1773 44.5175 36.7882 44.5175 37.5327C44.5175 38.2773 43.9173 38.8882 43.1858 38.8882H39.2282Z" fill="#FDF48D"/>
<path d="M51.0823 38.8882C50.3508 38.8882 49.7506 38.2773 49.7506 37.5327C49.7506 36.7882 50.3508 36.1773 51.0823 36.1773H73.984C74.7155 36.1773 75.3157 36.7882 75.3157 37.5327C75.3157 38.2773 74.7155 38.8882 73.984 38.8882H51.0823Z" fill="#FDF48D"/>
<path d="M39.2282 46.9255C38.4967 46.9255 37.8965 46.3145 37.8965 45.57C37.8965 44.8254 38.4967 44.2145 39.2282 44.2145H43.1858C43.9173 44.2145 44.5175 44.8254 44.5175 45.57C44.5175 46.3145 43.9173 46.9255 43.1858 46.9255H39.2282Z" fill="#FDF48D"/>
<path d="M51.0823 46.9255C50.3508 46.9255 49.7506 46.3145 49.7506 45.57C49.7506 44.8254 50.3508 44.2145 51.0823 44.2145H73.984C74.7155 44.2145 75.3157 44.8254 75.3157 45.57C75.3157 46.3145 74.7155 46.9255 73.984 46.9255H51.0823Z" fill="#FDF48D"/>
<path d="M49.0942 20.79C48.3627 20.79 47.7625 20.1791 47.7625 19.4345C47.7625 18.69 48.3627 18.0791 49.0942 18.0791H60.9483C61.6798 18.0791 62.28 18.69 62.28 19.4345C62.28 20.1791 61.6798 20.79 60.9483 20.79H49.0942Z" fill="#FDF48D"/>
<path d="M68.8447 20.79C68.1132 20.79 67.513 20.1791 67.513 19.4345C67.513 18.69 68.1132 18.0791 68.8447 18.0791H74.7718C75.5033 18.0791 76.1035 18.69 76.1035 19.4345C76.1035 20.1791 75.5033 20.79 74.7718 20.79H68.8447Z" fill="#FDF48D"/>
<path d="M39.2282 12.7527C38.4967 12.7527 37.8965 12.1418 37.8965 11.3973C37.8965 10.6527 38.4967 10.0418 39.2282 10.0418H74.7718C75.5033 10.0418 76.1035 10.6527 76.1035 11.3973C76.1035 12.1418 75.5033 12.7527 74.7718 12.7527H39.2282Z" fill="#FDF48D"/>
</g>
</mask>
<g mask="url(#mask0)">
<path d="M8 -7H89L87 65H60.5V28H8V-7Z" fill="#FDF48D"/>
</g>
<g clip-path="url(#clip1)">
<path d="M62.4217 26H1.57833C0.711358 26 0 26.6982 0 27.5491V96.4727C0 97.3236 0.711358 98.0218 1.57833 98.0218H10.9371C11.8041 98.0218 12.5155 97.3236 12.5155 96.4727V94.1818C12.5155 92.5018 13.9159 91.1273 15.6277 91.1273C17.3394 91.1273 18.7398 92.5018 18.7398 94.1818V96.4727C18.7398 97.3236 19.4512 98.0218 20.3182 98.0218H27.3428C28.2098 98.0218 28.9212 97.3236 28.9212 96.4727V94.1818C28.9212 92.5018 30.3216 91.1273 32.0333 91.1273C33.7451 91.1273 35.1455 92.5018 35.1455 94.1818V96.4727C35.1455 97.3236 35.8569 98.0218 36.7239 98.0218H43.7485C44.6155 98.0218 45.3269 97.3236 45.3269 96.4727V94.1818C45.3269 92.5018 46.7273 91.1273 48.439 91.1273C50.1507 91.1273 51.5512 92.5018 51.5512 94.1818V96.4727C51.5512 97.3236 52.2626 98.0218 53.1296 98.0218H62.4884C63.3553 98.0218 64.0667 97.3236 64.0667 96.4727V27.5491C64 26.6982 63.2886 26 62.4217 26ZM15.6054 79.6291H10.9371C10.0702 79.6291 9.35881 78.9309 9.35881 78.08C9.35881 77.2291 10.0702 76.5309 10.9371 76.5309H15.6277C16.4946 76.5309 17.206 77.2291 17.206 78.08C17.1837 78.9309 16.4724 79.6291 15.6054 79.6291ZM15.6054 70.4436H10.9371C10.0702 70.4436 9.35881 69.7455 9.35881 68.8945C9.35881 68.0436 10.0702 67.3455 10.9371 67.3455H15.6277C16.4946 67.3455 17.206 68.0436 17.206 68.8945C17.1837 69.7455 16.4724 70.4436 15.6054 70.4436ZM15.6054 61.2364H10.9371C10.0702 61.2364 9.35881 60.5382 9.35881 59.6873C9.35881 58.8364 10.0702 58.1382 10.9371 58.1382H15.6277C16.4946 58.1382 17.206 58.8364 17.206 59.6873C17.1837 60.56 16.4724 61.2364 15.6054 61.2364ZM21.074 48.2109C21.074 47.36 21.7853 46.6618 22.6523 46.6618H36.6794C37.5464 46.6618 38.2577 47.36 38.2577 48.2109C38.2577 49.0618 37.5464 49.76 36.6794 49.76H22.6301C21.7631 49.76 21.074 49.0618 21.074 48.2109ZM52.1292 79.6291H24.9865C24.1195 79.6291 23.4081 78.9309 23.4081 78.08C23.4081 77.2291 24.1195 76.5309 24.9865 76.5309H52.1292C52.9962 76.5309 53.7075 77.2291 53.7075 78.08C53.6853 78.9309 52.9962 79.6291 52.1292 79.6291ZM52.1292 70.4436H24.9865C24.1195 70.4436 23.4081 69.7455 23.4081 68.8945C23.4081 68.0436 24.1195 67.3455 24.9865 67.3455H52.1292C52.9962 67.3455 53.7075 68.0436 53.7075 68.8945C53.6853 69.7455 52.9962 70.4436 52.1292 70.4436ZM52.1292 61.2364H24.9865C24.1195 61.2364 23.4081 60.5382 23.4081 59.6873C23.4081 58.8364 24.1195 58.1382 24.9865 58.1382H52.1292C52.9962 58.1382 53.7075 58.8364 53.7075 59.6873C53.6853 60.56 52.9962 61.2364 52.1292 61.2364ZM53.0629 49.76H46.0382C45.1712 49.76 44.4599 49.0618 44.4599 48.2109C44.4599 47.36 45.1712 46.6618 46.0382 46.6618H53.0629C53.9298 46.6618 54.6412 47.36 54.6412 48.2109C54.6412 49.0618 53.9298 49.76 53.0629 49.76ZM53.0629 40.5745H10.9371C10.0702 40.5745 9.35881 39.8764 9.35881 39.0255C9.35881 38.1745 10.0702 37.4764 10.9371 37.4764H53.0629C53.9298 37.4764 54.6412 38.1745 54.6412 39.0255C54.6412 39.8764 53.9298 40.5745 53.0629 40.5745Z" fill="#FDF48D"/>
</g>
<defs>
<clipPath id="clip0">
<rect width="54" height="63" fill="white" transform="translate(30)"/>
</clipPath>
<clipPath id="clip1">
<rect width="64" height="72" fill="white" transform="translate(0 26)"/>
</clipPath>
</defs>
</svg>
