<svg width="20" height="23" viewBox="0 0 20 23" fill="none" xmlns="http://www.w3.org/2000/svg">
<circle cx="10" cy="10" r="9.5" stroke="#FFDC00"/>
<path d="M10.644 12.626C11.076 12.626 11.022 12.428 11.022 12.248V11.024C13.434 10.43 13.938 8.702 13.938 7.586C13.938 5.912 12.714 4.364 10.41 4.364C9.6 4.364 8.394 4.634 7.674 4.904C7.422 4.994 7.062 5.156 7.062 5.462C7.062 5.516 7.08 5.588 7.098 5.624L7.566 6.848C7.62 6.992 7.71 7.028 7.782 7.028C7.854 7.028 7.944 6.974 8.106 6.902C8.682 6.65 9.456 6.434 10.086 6.434C11.472 6.434 11.508 7.514 11.508 7.73C11.508 8.72 10.806 9.098 10.23 9.278L9.834 9.404C9.42 9.53 8.952 9.602 8.952 9.998V12.248C8.952 12.428 8.898 12.626 9.33 12.626H10.644ZM11.562 15.794C11.562 14.93 10.914 14.264 10.05 14.264C9.186 14.264 8.52 14.912 8.52 15.794C8.52 16.766 9.348 17.306 10.05 17.306C10.698 17.306 11.562 16.784 11.562 15.794Z" fill="#FFDC00"/>
</svg>
